<?xml version="1.0" encoding="utf-8"?>
<!-- Generator: Adobe Illustrator 24.1.2, SVG Export Plug-In . SVG Version: 6.00 Build 0)  -->
<svg version="1.1" id="Capa_1" xmlns="http://www.w3.org/2000/svg" xmlns:xlink="http://www.w3.org/1999/xlink" x="0px" y="0px"
	 viewBox="0 0 388.8 352.08" style="enable-background:new 0 0 388.8 352.08;" xml:space="preserve">
<style type="text/css">
	.st0{fill:#2D6A4F;}
</style>
<g>
	<g>
		<path class="st0" d="M214.68,178.41c0.14,7.38-5.36,14.48-13.55,15.62c-3.11,0.43-6.06-0.08-8.86-1.41
			c-0.69-0.33-1.26-0.3-1.92-0.1c-1.85,0.55-3.71,1.09-5.57,1.63c-1.11,0.32-1.21,0.23-0.94-0.87c0.47-1.93,0.94-3.87,1.44-5.79
			c0.17-0.66,0.12-1.23-0.2-1.85c-4.57-8.91,0.19-19.73,9.86-22.32c5.34-1.43,10.17-0.3,14.37,3.31
			C212.89,169.72,214.59,173.7,214.68,178.41z M212.05,178.31c0.05-0.63-0.09-1.37-0.19-2.12c-0.1-0.72-0.36-1.4-0.6-2.09
			c-2.63-7.68-12.3-10.95-19.04-6.45c-5.9,3.94-7.62,11.49-3.98,17.57c0.29,0.49,0.35,0.93,0.22,1.45c-0.25,0.96-0.48,1.93-0.72,2.9
			c-0.12,0.51,0.03,0.72,0.58,0.55c0.85-0.26,1.71-0.47,2.56-0.74c0.63-0.2,1.15-0.16,1.75,0.21c1.97,1.2,4.14,1.8,6.45,1.83
			C206.22,191.49,212.04,185.66,212.05,178.31z"/>
		<path class="st0" d="M191.06,174.86c0-1.62,1.1-3.19,2.45-3.67c0.74-0.26,1.49,0.02,1.83,0.74c0.27,0.58,0.45,1.21,0.74,1.79
			c0.59,1.17,0.53,2.21-0.5,3.11c-0.37,0.32-0.32,0.7-0.1,1.09c1.16,2.03,2.99,3.26,5.07,4.19c0.25,0.11,0.47,0.06,0.67-0.12
			c0.14-0.13,0.27-0.26,0.41-0.39c1.47-1.47,1.57-1.49,3.39-0.54c0.19,0.1,0.38,0.2,0.57,0.31c0.72,0.4,1.43,0.8,1.29,1.82
			c-0.15,1.17-0.71,2.03-1.84,2.42c-1.38,0.47-2.77,0.32-4.13-0.08c-5.12-1.52-8.3-4.95-9.76-10.03
			C191.06,175.23,191.07,174.96,191.06,174.86z"/>
	</g>
</g>
</svg>
